# xmcd CD database file
#
# Track frame offsets:
#	150
#	18784
#	39612
#	62136
#	85608
#	106393
#	129363
#	151113
#	169277
#	193927
#	218034
#	250543
#	275432
#	297086
#
# Disc length: 4181 seconds
#
# Revision: 0
# Processed by: cddbd v1.5.2PL0 Copyright (c) Steve Scherf et al.
# Submitted via: CDex 1.70beta2
#
DISCID=b910530e
DTITLE=Ivanow Jazz Group - Jazz it up!
DYEAR=1900
DGENRE=Jazz
TTITLE0=Lester leaps in
TTITLE1=Satin doll
TTITLE2=Georgia on my mind
TTITLE3=Undecided
TTITLE4=See see rider
TTITLE5=Cute
TTITLE6=Summertime
TTITLE7=I found a new baby
TTITLE8=June night
TTITLE9=Take the "A" Train
TTITLE10=Caravan
TTITLE11=All of me
TTITLE12=Miss Celie´s Blues
TTITLE13=It don´t mean a thing (If it ain´t got that swing)
EXTD=
EXTT0=
EXTT1=
EXTT2=
EXTT3=
EXTT4=
EXTT5=
EXTT6=
EXTT7=
EXTT8=
EXTT9=
EXTT10=
EXTT11=
EXTT12=
EXTT13=
PLAYORDER=
